Genre:Action | Comedy | Romance
Language:English 
http://www.imdb.com/title/tt1596350/
Source:Lum1x/SIC Thanks!
Encoder:Tony

Format : AVI
Format/Info : Audio Video Interleave
File size : 1.05 GiB
Duration : 1h 31mn
Overall bit rate : 1 642 Kbps

Video
ID : 0
Format : MPEG-4 Visual
Format profile : Advanced Simple@L5
Format settings, BVOP : 1
Format settings, QPel : No
Format settings, GMC : No warppoints
Format settings, Matrix : Default (H.263)
Codec ID : XVID
Codec ID/Hint : XviD
Duration : 1h 31mn
Bit rate : 1 441 Kbps
Width : 624 pixels
Height : 296 pixels
Display aspect ratio : 2.2:1
Frame rate : 25.000 fps
Color space : YUV
Chroma subsampling : 4:2:0
Bit depth : 8 bits
Scan type : Progressive
Compression mode : Lossy
Bits/(Pixel*Frame) : 0.312
Stream size : 943 MiB (88%)
Writing library : XviD 1.2.1 (UTC 2008-12-04)

Audio
ID : 1
Format : AC-3
Format/Info : Audio Coding 3
Mode extension : CM (complete main)
Codec ID : 2000
Duration : 1h 31mn
Bit rate mode : Constant
Bit rate : 192 Kbps
Channel(s) : 2 channels
Channel positions : Front: L R
Sampling rate : 48.0 KHz
Bit depth : 16 bits
Compression mode : Lossy
Stream size : 126 MiB (12%)
Alignment : Aligned on interleaves
Interleave, duration : 40 ms (1.00 video frame)
Interleave, preload duration : 512 ms


Plot:
Two top CIA operatives wage an epic battle against one another after they discover they are dating the same woman.
 
http://imgcrave.com/u/bk9yB.png 
http://imgcrave.com/u/P65zR.png 
http://imgcrave.com/u/LEqXj.png 
http://imgcrave.com/u/VCI2A.png


